<svg width="18" height="18" viewBox="0 0 18 18" fill="none" xmlns="http://www.w3.org/2000/svg">
<g clip-path="url(#clip0_0_35)">
<path d="M17.5117 8.42465L12.304 3.21694C11.9862 2.8992 11.4709 2.8992 11.1532 3.21694C10.8354 3.53474 10.8354 4.04991 11.1532 4.36771L14.9718 8.18633H1.06371C0.614345 8.18633 0.25 8.55068 0.25 9.00004C0.25 9.44934 0.614345 9.81375 1.06371 9.81375H14.9718L11.1533 13.6324C10.8355 13.9502 10.8355 14.4653 11.1533 14.7831C11.3122 14.9419 11.5205 15.0215 11.7287 15.0215C11.937 15.0215 12.1452 14.9419 12.3041 14.7831L17.5117 9.57543C17.8295 9.25763 17.8295 8.74245 17.5117 8.42465Z" fill="white"/>
</g>
<defs>
<clipPath id="clip0_0_35">
<rect width="17.5" height="17.5" fill="white" transform="translate(0.25 0.25)"/>
</clipPath>
</defs>
</svg>
