<svg width="40" height="40" viewBox="0 0 40 40" fill="none" xmlns="http://www.w3.org/2000/svg">
<g clip-path="url(#clip0_0_64)">
<path d="M26.2239 24.137C25.5785 24.137 25.0542 23.6145 25.0524 22.9684C25.0502 22.3215 25.5733 21.795 26.2206 21.7932C29.1643 21.7841 31.9649 20.0067 34.1063 16.7883C36.1617 13.6993 37.3693 9.65973 37.5533 5.30884H32.3915C31.7443 5.30884 31.2197 4.78424 31.2197 4.13696C31.2197 3.48969 31.7443 2.96509 32.3915 2.96509H38.7499C39.3971 2.96509 39.9217 3.48969 39.9217 4.13696C39.9217 9.38782 38.5494 14.3417 36.0579 18.0869C33.4694 21.9766 29.9785 24.1254 26.2279 24.137C26.2267 24.137 26.2255 24.137 26.2239 24.137Z" fill="#FF8E1D"/>
<path d="M13.6197 24.137C13.6182 24.137 13.6172 24.137 13.616 24.137C9.86542 24.1254 6.37421 21.9766 3.78601 18.0869C1.29425 14.3417 -0.078125 9.38782 -0.078125 4.13696C-0.078125 3.48969 0.446472 2.96509 1.09375 2.96509H7.45209C8.09937 2.96509 8.62396 3.48969 8.62396 4.13696C8.62396 4.78424 8.09937 5.30884 7.45209 5.30884H2.29034C2.47437 9.65973 3.68195 13.6993 5.7373 16.7883C7.87872 20.0067 10.6793 21.7841 13.623 21.7932C14.2703 21.795 14.7934 22.3215 14.7913 22.9684C14.7894 23.6145 14.2651 24.1367 13.6197 24.137Z" fill="#FFB023"/>
<path d="M32.4741 0.078125H7.36975C6.72278 0.078125 6.19788 0.602722 6.19788 1.25C6.19788 8.13385 7.54767 14.6243 9.99823 19.5255C11.5684 22.6654 13.4885 24.9448 15.6119 26.2497V32.63C15.6119 33.2773 16.1368 33.8019 16.7838 33.8019H23.0601C23.7073 33.8019 24.2319 33.2773 24.2319 32.63V26.2497C26.3554 24.9451 28.2758 22.6654 29.8456 19.5255C32.2962 14.6243 33.646 8.13385 33.646 1.25C33.646 0.602722 33.1214 0.078125 32.4741 0.078125Z" fill="#FFD12B"/>
<path d="M24.2319 32.63V26.2497C26.3553 24.9451 28.2758 22.6654 29.8456 19.5255C32.2961 14.6243 33.6459 8.13385 33.6459 1.25C33.6459 0.602722 33.1213 0.078125 32.4741 0.078125H19.9219V33.8019H23.06C23.7073 33.8019 24.2319 33.2773 24.2319 32.63Z" fill="#FFB023"/>
<path d="M26.1978 31.4582H13.6459C11.2695 31.4582 9.33594 33.3918 9.33594 35.7682V38.9063C9.33594 39.5533 9.86053 40.0778 10.5078 40.0778H29.3359C29.9832 40.0778 30.5078 39.5533 30.5078 38.9063V35.7682C30.5078 33.3918 28.5745 31.4582 26.1978 31.4582Z" fill="#FF8E1D"/>
<path d="M26.1978 31.4582H19.9219V40.0778H29.3359C29.9832 40.0778 30.5078 39.5533 30.5078 38.9063V35.7682C30.5078 33.3918 28.5745 31.4582 26.1978 31.4582Z" fill="#FF6D15"/>
<path d="M30.5912 40.0778H9.25269C8.60571 40.0778 8.08081 39.5532 8.08081 38.9062C8.08081 38.259 8.60571 37.7344 9.25269 37.7344H30.5912C31.2385 37.7344 31.7631 38.259 31.7631 38.9062C31.7631 39.5532 31.2385 40.0778 30.5912 40.0778Z" fill="#FFB023"/>
<path d="M30.5911 37.7344H19.9219V40.0778H30.5911C31.2384 40.0778 31.763 39.5532 31.763 38.9062C31.763 38.259 31.2384 37.7344 30.5911 37.7344Z" fill="#FF8E1D"/>
</g>
<defs>
<clipPath id="clip0_0_64">
<rect width="40" height="40" fill="white"/>
</clipPath>
</defs>
</svg>
